<mxfile host="65bd71144e">
    <diagram id="sBb44O2A6z-bI9DtwBE_" name="第 1 页">
        <mxGraphModel dx="448" dy="680" grid="1" gridSize="10" guides="1" tooltips="1" connect="1" arrows="1" fold="1" page="1" pageScale="1" pageWidth="827" pageHeight="1169" math="0" shadow="0">
            <root>
                <mxCell id="0"/>
                <mxCell id="1" parent="0"/>
                <mxCell id="d0mG0j9fA21P4ZklcSl9-1" value="中文时间表达式信息抽取系统" style="rounded=0;whiteSpace=wrap;html=1;fontSize=13;" parent="1" vertex="1">
                    <mxGeometry x="40" y="440" width="180" height="60" as="geometry"/>
                </mxCell>
                <mxCell id="d0mG0j9fA21P4ZklcSl9-2" value="中文时间表达式解析模块" style="rounded=0;whiteSpace=wrap;html=1;fontSize=13;" parent="1" vertex="1">
                    <mxGeometry x="260" y="300" width="180" height="60" as="geometry"/>
                </mxCell>
                <mxCell id="d0mG0j9fA21P4ZklcSl9-3" value="信息抽取系统分析与展示模块" style="rounded=0;whiteSpace=wrap;html=1;fontSize=13;" parent="1" vertex="1">
                    <mxGeometry x="260" y="380" width="180" height="60" as="geometry"/>
                </mxCell>
                <mxCell id="d0mG0j9fA21P4ZklcSl9-4" value="中文时间表达式识别模块" style="rounded=0;whiteSpace=wrap;html=1;fontSize=13;" parent="1" vertex="1">
                    <mxGeometry x="260" y="460" width="180" height="60" as="geometry"/>
                </mxCell>
                <mxCell id="d0mG0j9fA21P4ZklcSl9-5" value="信息抽取系统分析结构&lt;br style=&quot;font-size: 13px;&quot;&gt;与预料存储模块" style="rounded=0;whiteSpace=wrap;html=1;fontSize=13;" parent="1" vertex="1">
                    <mxGeometry x="260" y="540" width="180" height="60" as="geometry"/>
                </mxCell>
                <mxCell id="d0mG0j9fA21P4ZklcSl9-6" value="解析树构建模块" style="rounded=0;whiteSpace=wrap;html=1;fontSize=13;" parent="1" vertex="1">
                    <mxGeometry x="480" y="220" width="180" height="60" as="geometry"/>
                </mxCell>
                <mxCell id="d0mG0j9fA21P4ZklcSl9-7" value="冲突消解模块" style="rounded=0;whiteSpace=wrap;html=1;fontSize=13;" parent="1" vertex="1">
                    <mxGeometry x="480" y="300" width="180" height="60" as="geometry"/>
                </mxCell>
                <mxCell id="d0mG0j9fA21P4ZklcSl9-8" value="规则组合模块" style="rounded=0;whiteSpace=wrap;html=1;fontSize=13;" parent="1" vertex="1">
                    <mxGeometry x="480" y="380" width="180" height="60" as="geometry"/>
                </mxCell>
                <mxCell id="d0mG0j9fA21P4ZklcSl9-9" value="数字类型识别模块" style="rounded=0;whiteSpace=wrap;html=1;fontSize=13;" parent="1" vertex="1">
                    <mxGeometry x="480" y="460" width="180" height="60" as="geometry"/>
                </mxCell>
                <mxCell id="d0mG0j9fA21P4ZklcSl9-10" value="时间单元识别模块" style="rounded=0;whiteSpace=wrap;html=1;fontSize=13;" parent="1" vertex="1">
                    <mxGeometry x="480" y="540" width="180" height="60" as="geometry"/>
                </mxCell>
                <mxCell id="d0mG0j9fA21P4ZklcSl9-11" value="OCR识别模块" style="rounded=0;whiteSpace=wrap;html=1;fontSize=13;" parent="1" vertex="1">
                    <mxGeometry x="480" y="620" width="180" height="60" as="geometry"/>
                </mxCell>
                <mxCell id="d0mG0j9fA21P4ZklcSl9-14" value="" style="endArrow=none;html=1;entryX=1;entryY=0.5;entryDx=0;entryDy=0;exitX=0;exitY=0.5;exitDx=0;exitDy=0;edgeStyle=elbowEdgeStyle;fontSize=13;" parent="1" source="d0mG0j9fA21P4ZklcSl9-2" target="d0mG0j9fA21P4ZklcSl9-1" edge="1">
                    <mxGeometry width="50" height="50" relative="1" as="geometry">
                        <mxPoint x="390" y="500" as="sourcePoint"/>
                        <mxPoint x="440" y="450" as="targetPoint"/>
                    </mxGeometry>
                </mxCell>
                <mxCell id="d0mG0j9fA21P4ZklcSl9-15" value="" style="endArrow=none;html=1;entryX=0;entryY=0.5;entryDx=0;entryDy=0;exitX=1;exitY=0.5;exitDx=0;exitDy=0;edgeStyle=elbowEdgeStyle;fontSize=13;" parent="1" source="d0mG0j9fA21P4ZklcSl9-1" target="d0mG0j9fA21P4ZklcSl9-3" edge="1">
                    <mxGeometry width="50" height="50" relative="1" as="geometry">
                        <mxPoint x="90" y="390" as="sourcePoint"/>
                        <mxPoint x="140" y="340" as="targetPoint"/>
                    </mxGeometry>
                </mxCell>
                <mxCell id="d0mG0j9fA21P4ZklcSl9-16" value="" style="endArrow=none;html=1;entryX=1;entryY=0.5;entryDx=0;entryDy=0;exitX=0;exitY=0.5;exitDx=0;exitDy=0;edgeStyle=elbowEdgeStyle;fontSize=13;" parent="1" source="d0mG0j9fA21P4ZklcSl9-5" target="d0mG0j9fA21P4ZklcSl9-1" edge="1">
                    <mxGeometry width="50" height="50" relative="1" as="geometry">
                        <mxPoint x="270" y="300" as="sourcePoint"/>
                        <mxPoint x="230" y="480" as="targetPoint"/>
                    </mxGeometry>
                </mxCell>
                <mxCell id="d0mG0j9fA21P4ZklcSl9-17" value="" style="endArrow=none;html=1;entryX=1;entryY=0.5;entryDx=0;entryDy=0;edgeStyle=elbowEdgeStyle;fontSize=13;" parent="1" source="d0mG0j9fA21P4ZklcSl9-4" target="d0mG0j9fA21P4ZklcSl9-1" edge="1">
                    <mxGeometry width="50" height="50" relative="1" as="geometry">
                        <mxPoint x="270" y="660" as="sourcePoint"/>
                        <mxPoint x="230" y="480" as="targetPoint"/>
                    </mxGeometry>
                </mxCell>
                <mxCell id="d0mG0j9fA21P4ZklcSl9-18" value="" style="endArrow=none;html=1;entryX=1;entryY=0.5;entryDx=0;entryDy=0;exitX=0;exitY=0.5;exitDx=0;exitDy=0;edgeStyle=elbowEdgeStyle;fontSize=13;" parent="1" source="d0mG0j9fA21P4ZklcSl9-6" target="d0mG0j9fA21P4ZklcSl9-2" edge="1">
                    <mxGeometry width="50" height="50" relative="1" as="geometry">
                        <mxPoint x="270" y="300" as="sourcePoint"/>
                        <mxPoint x="230" y="480" as="targetPoint"/>
                    </mxGeometry>
                </mxCell>
                <mxCell id="d0mG0j9fA21P4ZklcSl9-19" value="" style="endArrow=none;html=1;entryX=1;entryY=0.5;entryDx=0;entryDy=0;exitX=0;exitY=0.5;exitDx=0;exitDy=0;edgeStyle=elbowEdgeStyle;fontSize=13;" parent="1" source="d0mG0j9fA21P4ZklcSl9-7" target="d0mG0j9fA21P4ZklcSl9-2" edge="1">
                    <mxGeometry width="50" height="50" relative="1" as="geometry">
                        <mxPoint x="490" y="60" as="sourcePoint"/>
                        <mxPoint x="450" y="300" as="targetPoint"/>
                    </mxGeometry>
                </mxCell>
                <mxCell id="d0mG0j9fA21P4ZklcSl9-20" value="" style="endArrow=none;html=1;entryX=1;entryY=0.5;entryDx=0;entryDy=0;exitX=0;exitY=0.5;exitDx=0;exitDy=0;edgeStyle=elbowEdgeStyle;fontSize=13;" parent="1" source="d0mG0j9fA21P4ZklcSl9-8" target="d0mG0j9fA21P4ZklcSl9-2" edge="1">
                    <mxGeometry width="50" height="50" relative="1" as="geometry">
                        <mxPoint x="490" y="180" as="sourcePoint"/>
                        <mxPoint x="450" y="300" as="targetPoint"/>
                    </mxGeometry>
                </mxCell>
                <mxCell id="d0mG0j9fA21P4ZklcSl9-21" value="" style="endArrow=none;html=1;entryX=1;entryY=0.5;entryDx=0;entryDy=0;edgeStyle=elbowEdgeStyle;fontSize=13;" parent="1" source="d0mG0j9fA21P4ZklcSl9-9" target="d0mG0j9fA21P4ZklcSl9-4" edge="1">
                    <mxGeometry width="50" height="50" relative="1" as="geometry">
                        <mxPoint x="490" y="180" as="sourcePoint"/>
                        <mxPoint x="450" y="300" as="targetPoint"/>
                    </mxGeometry>
                </mxCell>
                <mxCell id="d0mG0j9fA21P4ZklcSl9-22" value="" style="endArrow=none;html=1;entryX=1;entryY=0.5;entryDx=0;entryDy=0;edgeStyle=elbowEdgeStyle;exitX=0;exitY=0.5;exitDx=0;exitDy=0;fontSize=13;" parent="1" source="d0mG0j9fA21P4ZklcSl9-10" target="d0mG0j9fA21P4ZklcSl9-4" edge="1">
                    <mxGeometry width="50" height="50" relative="1" as="geometry">
                        <mxPoint x="490" y="420" as="sourcePoint"/>
                        <mxPoint x="450" y="540" as="targetPoint"/>
                    </mxGeometry>
                </mxCell>
                <mxCell id="d0mG0j9fA21P4ZklcSl9-23" value="" style="endArrow=none;html=1;entryX=1;entryY=0.5;entryDx=0;entryDy=0;edgeStyle=elbowEdgeStyle;exitX=0;exitY=0.5;exitDx=0;exitDy=0;fontSize=13;" parent="1" source="d0mG0j9fA21P4ZklcSl9-11" target="d0mG0j9fA21P4ZklcSl9-4" edge="1">
                    <mxGeometry width="50" height="50" relative="1" as="geometry">
                        <mxPoint x="490" y="420" as="sourcePoint"/>
                        <mxPoint x="450" y="540" as="targetPoint"/>
                    </mxGeometry>
                </mxCell>
            </root>
        </mxGraphModel>
    </diagram>
</mxfile>